<svg width="157" height="25" viewBox="0 0 157 25" fill="none" xmlns="http://www.w3.org/2000/svg">
<path d="M5.6424 12.485L2.81998 15.305L0 12.485L2.81998 9.66502L5.6424 12.485ZM12.485 5.63752L17.3175 10.4725L20.1375 7.65249L12.485 0L4.83251 7.65249L7.65249 10.4725L12.485 5.63752ZM22.1525 9.66502L19.3325 12.485L22.1525 15.305L24.97 12.485L22.1525 9.66502ZM12.485 19.3325L7.65249 14.5L4.83251 17.3175L12.485 24.97L20.1375 17.3175L17.3175 14.5L12.485 19.3325ZM12.485 15.305L15.305 12.485L12.485 9.66502L9.66502 12.485L12.485 15.305ZM42.246 15.5758V15.5367C42.246 13.6974 41.2703 12.7777 39.6846 12.1728C40.6604 11.6239 41.4849 10.7628 41.4849 9.2186V9.17957C41.4849 7.028 39.7627 5.63752 36.9647 5.63752H30.61V19.3325H37.1232C40.214 19.3325 42.2485 18.081 42.2485 15.5758H42.246ZM38.4918 9.72113C38.4918 10.7384 37.6502 11.1701 36.3182 11.1701H33.5446V8.27942H36.5183C37.7892 8.27942 38.4942 8.78682 38.4942 9.68697L38.4918 9.72113ZM39.2529 15.2001C39.2529 16.2173 38.4527 16.6857 37.1208 16.6857H33.5446V13.6779H37.0257C38.5723 13.6779 39.2553 14.2463 39.2553 15.1659L39.2529 15.2001ZM48.5764 19.3325V5.63752H45.5539V19.3325H48.5764ZM64.7717 19.3325V5.63752H61.7883V14.0706L55.3702 5.63752H52.5941V19.3325H55.5678V10.6262L62.1981 19.3325H64.7717ZM81.4599 19.3325L75.5808 5.53994H72.8023L66.9331 19.3325H70.0043L71.263 16.2612H77.0518L78.3057 19.3325H81.4599ZM75.9809 13.5998H72.334L74.1538 9.16006L75.9809 13.5998ZM95.8208 19.3325V5.63752H92.8374V14.0706L86.4192 5.63752H83.6407V19.3325H86.6144V10.6262L93.2472 19.3325H95.8208ZM111.372 17.1224L109.455 15.1854C108.379 16.1612 107.42 16.7882 105.857 16.7882C103.51 16.7882 101.885 14.8366 101.885 12.485V12.446C101.885 10.0992 103.549 8.18185 105.857 8.18185C107.225 8.18185 108.296 8.76731 109.357 9.726L111.27 7.51588C109.999 6.26445 108.452 5.40334 105.871 5.40334C101.666 5.40334 98.731 8.59167 98.731 12.4777V12.5167C98.731 16.4491 101.724 19.5594 105.754 19.5594C108.389 19.5667 109.955 18.6275 111.362 17.1224H111.372ZM124.225 19.3325V16.6491H116.783V13.7681H123.24V11.0848H116.783V8.31845H124.118V5.63508H113.79V19.33L124.225 19.3325Z" fill="#B3B3B2"/>
<path fill-rule="evenodd" clip-rule="evenodd" d="M127.816 19.3348V17.2783H129.619V19.3348H127.816Z" fill="#B3B3B2"/>
<path fill-rule="evenodd" clip-rule="evenodd" d="M143.671 13.4829C143.671 17.4762 141.381 19.5498 137.956 19.5498C134.531 19.5498 132.25 17.4762 132.25 13.6V5.63281H133.797V13.5024C133.797 16.4566 135.36 18.1203 137.985 18.1203C140.51 18.1203 142.115 16.5956 142.115 13.6V5.63281H143.662L143.671 13.4829Z" fill="#B3B3B2"/>
<path fill-rule="evenodd" clip-rule="evenodd" d="M151.786 11.7381C154.84 12.4041 156.25 13.5214 156.25 15.6412C156.25 18.0099 154.299 19.5443 151.572 19.5443C149.398 19.5443 147.617 18.8125 145.961 17.3488L146.932 16.2072C148.361 17.5001 149.73 18.1441 151.63 18.1441C153.469 18.1392 154.689 17.1829 154.689 15.7925C154.689 14.4996 154.004 13.7751 151.125 13.1676C147.973 12.4822 146.524 11.46 146.524 9.19381C146.524 6.99832 148.425 5.43709 151.028 5.43709C152.785 5.38608 154.5 5.98543 155.843 7.1203L154.933 8.31318C153.66 7.27642 152.389 6.82513 150.979 6.82513C149.198 6.82513 148.051 7.8009 148.051 9.0572C148.066 10.3696 148.771 11.0844 151.786 11.7381Z" fill="#B3B3B2"/>
</svg>
