<?xml version="1.0" encoding="UTF-8" standalone="no"?>
<svg
   xmlns:dc="http://purl.org/dc/elements/1.1/"
   xmlns:cc="http://creativecommons.org/ns#"
   xmlns:rdf="http://www.w3.org/1999/02/22-rdf-syntax-ns#"
   xmlns:svg="http://www.w3.org/2000/svg"
   xmlns="http://www.w3.org/2000/svg"
   xmlns:sodipodi="http://sodipodi.sourceforge.net/DTD/sodipodi-0.dtd"
   xmlns:inkscape="http://www.inkscape.org/namespaces/inkscape"
   width="112px"
   height="28px"
   viewBox="0 0 112 28"
   version="1.1"
   id="svg11"
   sodipodi:docname="coinmama_white.svg"
   inkscape:version="0.92.3 (2405546, 2018-03-11)">
  <metadata
     id="metadata17">
    <rdf:RDF>
      <cc:Work
         rdf:about="">
        <dc:format>image/svg+xml</dc:format>
        <dc:type
           rdf:resource="http://purl.org/dc/dcmitype/StillImage" />
        <dc:title>elements/logo</dc:title>
      </cc:Work>
    </rdf:RDF>
  </metadata>
  <defs
     id="defs15" />
  <sodipodi:namedview
     pagecolor="#ffffff"
     bordercolor="#666666"
     borderopacity="1"
     objecttolerance="10"
     gridtolerance="10"
     guidetolerance="10"
     inkscape:pageopacity="0"
     inkscape:pageshadow="2"
     inkscape:window-width="1920"
     inkscape:window-height="1016"
     id="namedview13"
     showgrid="false"
     inkscape:zoom="2.9464286"
     inkscape:cx="21.042424"
     inkscape:cy="14"
     inkscape:window-x="0"
     inkscape:window-y="27"
     inkscape:window-maximized="1"
     inkscape:current-layer="svg11" />
  <!-- Generator: Sketch 52.6 (67491) - http://www.bohemiancoding.com/sketch -->
  <title
     id="title2">elements/logo</title>
  <desc
     id="desc4">Created with Sketch.</desc>
  <g
     id="z"
     stroke="none"
     stroke-width="1"
     fill="none"
     fill-rule="evenodd"
     style="fill:#ffffff">
    <g
       id="sell-2"
       transform="translate(-29.000000, -26.000000)"
       fill="#1F2374"
       style="fill:#ffffff">
      <g
         id="elements/logo"
         transform="translate(29.000000, 26.000000)"
         style="fill:#ffffff">
        <g
           id="Page-1"
           style="fill:#ffffff">
          <path
             d="M17.0263254,11.0287797 C17.0398847,11.2330508 17.1790712,11.3844407 17.2621898,11.5586102 C17.374461,11.7935932 17.5131051,12.0159661 17.6404271,12.2437627 C17.7745288,12.4838305 17.9081559,12.7241695 18.0430034,12.9638305 C18.2082237,13.2574576 18.3752746,13.55 18.5011729,13.8635593 C18.5550034,13.9978644 18.6145966,14.13 18.6627322,14.2662034 C18.758122,14.5364407 18.6957492,14.7228814 18.5073424,14.9519661 C18.5006305,14.9600339 18.4873424,14.9631525 18.4817831,14.9716271 C18.3292407,15.2024068 18.0876136,15.2429492 17.8403593,15.2891186 C17.6217153,15.3298644 17.4042915,15.3836271 17.2415119,15.5636949 C17.0758169,15.7469492 17.0564949,15.8942712 17.1955458,16.1019322 C17.3323593,16.3062712 17.4684949,16.5109492 17.6028678,16.7169153 C17.6321559,16.7617966 17.6559525,16.8110847 17.6758169,16.8609153 C17.7705288,17.0988136 17.6599525,17.401322 17.439139,17.5353559 C17.3263932,17.6036949 17.2192746,17.6822034 17.114122,17.7621356 C17.0286983,17.8271525 17.034122,17.8522373 17.0998169,17.9476271 C17.2467322,18.1611186 17.3772407,18.3810508 17.3811051,18.653661 C17.3836814,18.830339 17.3193424,18.9476271 17.1647661,19.0513559 C16.9416475,19.2010508 16.686461,19.2611186 16.4493085,19.3689153 C16.1379186,19.5104068 16.0093763,19.7462712 16.2190034,20.0659322 C16.4223254,20.3759661 16.5050373,20.71 16.4358169,21.0681695 C16.4030034,21.2382712 16.3497831,21.4104068 16.254461,21.5657966 C16.1220542,21.7817288 15.9783254,21.9858644 15.7809695,22.1468814 C15.6644271,22.2419322 15.5412407,22.3205763 15.3879525,22.3538644 C15.2413085,22.3857288 15.1030712,22.4598305 14.9559525,22.4853898 C14.5779864,22.5511525 14.2086983,22.6607119 13.8223254,22.6869492 C13.5426644,22.7059322 13.266122,22.766339 12.9872068,22.8001017 C12.8206983,22.8202373 12.6514102,22.8171864 12.4849017,22.8371864 C11.8651051,22.9114915 11.2420542,22.8878305 10.6204949,22.9092542 C10.4221898,22.9161695 10.2323593,22.9841695 10.0408339,23.0418644 C9.85947797,23.0965763 9.71981695,23.2114915 9.5628678,23.3005763 C9.50090169,23.3356949 9.44727458,23.3995593 9.41046102,23.462339 C9.33513898,23.5908814 9.27513898,23.7283051 9.20618983,23.8607119 C9.11812203,24.0301356 9.02544407,24.1971864 8.93832542,24.3670847 C8.84741017,24.5443729 8.76185085,24.7243051 8.67202034,24.9022034 C8.47568136,25.2914237 8.27737627,25.6796949 8.08144407,26.0691186 C7.96049492,26.3095932 7.84341017,26.5518983 7.72293559,26.7926441 C7.54951186,27.1393559 7.37500339,27.4855254 7.19995254,27.8314915 C7.17669831,27.8775254 7.14781695,27.9207797 7.0927661,27.9592881 C7.08293559,27.0904068 7.07405424,26.2215254 7.06300339,25.3526441 C7.05181695,24.4809153 7.03852881,23.6092542 7.02585085,22.71 C7.11595254,22.7040339 7.19018983,22.6952881 7.26449492,22.6948814 C7.45425763,22.6938644 7.64402034,22.697661 7.83385085,22.6973898 C8.04930847,22.6970508 8.05595254,22.6908814 8.05622373,22.4814576 C8.05696949,22.0041695 8.05629153,21.5268814 8.05622373,21.049661 L8.05622373,20.8301356 C8.16103729,20.7472203 8.27568136,20.7672203 8.37941017,20.7667458 C9.14944407,20.7632203 9.91954576,20.7660678 10.6895797,20.769661 C10.8291051,20.7702712 10.9684949,20.7834237 11.0720881,20.7889153 C11.1909356,20.9432203 11.2750712,21.0834237 11.3884271,21.1934576 C11.6545288,21.4514915 12.0885627,21.5561017 12.4457153,21.3578644 C12.6465288,21.2464746 12.7989356,21.1017288 12.9091051,20.902678 C13.0644271,20.6217966 12.9863254,20.1712881 12.7785288,19.9234915 C12.6474102,19.7672881 12.4979186,19.666339 12.3169017,19.5954915 C12.1402915,19.526339 11.9712068,19.538678 11.7853085,19.5910847 C11.5632068,19.653661 11.4077492,19.7890508 11.2655119,19.9492542 C11.2072746,20.0149492 11.1729695,20.1050508 11.1394102,20.1887119 C11.1078847,20.2672881 11.0432746,20.2941356 10.975478,20.3008475 C10.8586644,20.3124407 10.7402915,20.3094576 10.6226644,20.3095254 C9.48368136,20.3102034 8.3447661,20.3104068 7.20585085,20.3105424 C7.0228678,20.3105424 7.00666441,20.2962373 7.00429153,20.1204407 C7.00042712,19.8276271 6.99724068,19.5347458 6.99669831,19.2419322 C6.99622373,18.9792881 6.99805424,18.9780678 7.25629153,18.9782034 C7.63595254,18.9784068 8.01554576,18.9813898 8.39513898,18.9807797 C8.46388475,18.9807119 8.53263051,18.9691186 8.61500339,18.9615932 L8.61500339,18.7697288 C8.61513898,18.1893898 8.61507119,17.6091186 8.61527458,17.0287797 C8.61534237,16.8910847 8.61161356,16.8840339 8.46903729,16.8832881 C8.04056271,16.8808475 7.61215593,16.8809153 7.18368136,16.8801017 C7.11927458,16.8799661 7.0548678,16.8801017 6.97778305,16.8801017 L6.97778305,15.7849831 C7.06327458,15.7798983 7.14795254,15.7705424 7.23269831,15.7705424 C8.05168136,15.7704068 8.87052881,15.7721695 9.68951186,15.7728475 C10.4596814,15.7733898 11.2297831,15.7754237 11.9998847,15.7730508 C12.4120203,15.7717627 12.8242237,15.7647797 13.2362237,15.7555593 C13.3545966,15.7529153 13.427478,15.7822034 13.4921559,15.8984068 C13.5688339,16.0361017 13.6729017,16.1781356 13.8016475,16.2630847 C14.0255119,16.4108136 14.2865966,16.4918983 14.5587322,16.4068136 C14.726122,16.3545424 14.8877492,16.286339 15.0257153,16.1603729 C15.3192746,15.8925085 15.4310034,15.2712881 15.1268,14.9377288 C15.0340542,14.8360339 14.9640203,14.7150169 14.8356814,14.6484407 C14.5601559,14.5051864 14.283139,14.4730508 13.9838847,14.5864068 C13.7691729,14.6676949 13.6381898,14.8332542 13.503139,14.9963051 C13.4547322,15.0547458 13.4444949,15.1446441 13.4157492,15.2230169 C13.299139,15.2558983 9.31242712,15.2675593 9.10022373,15.2312203 C9.09561356,15.1563051 9.0868,15.0771186 9.08659661,14.9977966 C9.08517288,14.3470169 9.08544407,13.6961695 9.08510508,13.0453898 C9.08510508,13.0128475 9.08598644,12.9802373 9.08429153,12.9477627 C9.07696949,12.8008475 9.05669831,12.7797627 8.90829153,12.7795593 C8.33337627,12.7787458 7.75846102,12.7793559 7.18354576,12.7793559 L6.96212203,12.7793559 C6.95812203,12.7055254 6.95263051,12.6477627 6.95222373,12.5900678 C6.95059661,12.3134576 6.95357966,12.0367797 6.94869831,11.7603051 C6.94422373,11.5009153 6.93168136,11.2417288 6.92341017,10.9824746 C6.92171525,10.9291864 6.92313898,10.8758305 6.92313898,10.8088475 C6.99547797,10.8055254 7.05385085,10.8004407 7.11222373,10.8003729 C8.75554576,10.7998983 10.3988678,10.8007119 12.0421898,10.7982034 C12.1651729,10.798 12.2574441,10.8120339 12.3070712,10.9483729 C12.3613763,11.0977288 12.4915458,11.1969153 12.6021898,11.3045085 C12.6520881,11.3531186 12.7278169,11.3780678 12.795139,11.4053898 C13.1542576,11.5510847 13.4745288,11.4902034 13.7748678,11.242678 C14.0229356,11.0382712 14.134122,10.7833559 14.1438169,10.469661 C14.1486983,10.3153559 14.0838847,10.1827458 14.0105966,10.0633559 C13.8310034,9.77061017 13.7481559,9.70545763 13.4070712,9.57922034 C13.2613763,9.52518644 13.1006983,9.52471186 12.9473424,9.58105085 C12.9072068,9.59576271 12.8647661,9.60410169 12.8242237,9.61786441 C12.7374441,9.64728814 12.6520203,9.67725424 12.5884271,9.75115254 C12.5620542,9.78172881 12.5202237,9.79894915 12.4855797,9.82254237 C12.4680881,9.83433898 12.4442237,9.84288136 12.4346644,9.85949153 C12.3557492,9.99671186 12.279478,10.1354237 12.1982576,10.2811186 L8.40388475,10.2811186 C8.39825763,10.2055254 8.39059661,10.1486441 8.39025763,10.0917627 C8.38856271,9.77718644 8.38903729,9.46261017 8.38795254,9.1480339 C8.38734237,8.96525424 8.35751186,8.93623729 8.17107119,8.9360339 C7.81310508,8.93569492 7.45520678,8.93589831 7.09717288,8.93583051 L6.94015593,8.93583051 C6.89222373,8.72566102 6.88212203,7.28125424 6.93012203,7.13189831 C6.98707119,7.12911864 7.05032542,7.12349153 7.11357966,7.12349153 C7.91622373,7.12308475 8.71893559,7.12342373 9.52164746,7.12355932 C9.55954576,7.12362712 9.59757966,7.12505085 9.63547797,7.12349153 C9.78768136,7.11745763 9.81520678,7.09149153 9.81588475,6.94091525 C9.81730847,6.61549153 9.81642712,6.2900678 9.81649492,5.96471186 L9.81649492,5.77942373 C9.86225763,5.77054237 9.89751186,5.7579322 9.9327661,5.75779661 C10.2581898,5.75630508 10.5836814,5.75888136 10.9090373,5.75583051 C10.9886983,5.75508475 11.031139,5.786 11.0776475,5.85176271 C11.1607661,5.96945763 11.2126305,6.10708475 11.3321559,6.20328814 C11.6131051,6.42938983 11.9260542,6.53237288 12.2695797,6.41155932 C12.4598169,6.34464407 12.6481559,6.23759322 12.7516814,6.03949153 C12.7638847,6.01610169 12.7817153,5.99555932 12.7973085,5.9739322 C12.9861898,5.7120339 12.987478,5.434 12.8788678,5.14091525 C12.8128339,4.96267797 12.695139,4.81705085 12.5484271,4.71766102 C12.402461,4.61867797 12.2368339,4.52769492 12.0483593,4.51752542 C11.8680203,4.50776271 11.7034102,4.54132203 11.5378508,4.63115254 C11.2764271,4.77298305 11.1233424,4.98898305 11.0183932,5.266 L9.20042712,5.266 C9.19595254,4.46525424 9.19229153,3.67223729 9.19974915,2.86342373 C9.3107322,2.85786441 9.40144407,2.84952542 9.49208814,2.84938983 C10.1212407,2.84837288 10.7503932,2.84905085 11.379478,2.84918644 C11.4175119,2.84918644 11.4557492,2.85216949 11.4933763,2.84844068 C11.5947322,2.83833898 11.6130373,2.81915254 11.6185288,2.71759322 C11.6214441,2.66349153 11.6201559,2.60918644 11.6200881,2.55488136 C11.6200881,1.80105085 11.6199525,1.04715254 11.6198169,0.293322034 L11.6198169,0.0841694915 C11.7000203,0.079220339 11.7681559,0.0714237288 11.8362915,0.0713559322 C12.3353424,0.0708813559 12.834461,0.0796271186 13.3331051,0.0679661017 C13.4919525,0.0642372881 13.6241559,0.121525424 13.7419186,0.196779661 C13.9239525,0.313050847 14.0948678,0.451898305 14.2522237,0.600508475 C14.4451729,0.782813559 14.6339186,0.969389831 14.8026644,1.17813559 C14.9596136,1.37216949 15.1211729,1.56138983 15.2623254,1.76783051 C15.4017153,1.97155932 15.5337153,2.17461017 15.5731729,2.42776271 C15.6001559,2.60084746 15.650122,2.77101695 15.6986644,2.93989831 C15.7125627,2.98850847 15.7526305,3.03257627 15.7886983,3.07128814 C15.8508,3.13813559 15.9176475,3.20077966 15.9853085,3.26213559 C16.1329017,3.39623729 16.2373085,3.56281356 16.3518169,3.72376271 C16.4840203,3.90972881 16.6022576,4.10383051 16.7007661,4.30681356 C16.8121559,4.53616949 16.8966305,4.77894915 16.9870034,5.01813559 C17.0602237,5.21189831 17.1251729,5.40871186 17.1929017,5.60457627 C17.2015797,5.62966102 17.2079525,5.65650847 17.2095797,5.68294915 C17.2249017,5.92023729 17.2490373,6.15752542 17.2513424,6.39494915 C17.259478,7.2299322 17.2614441,8.06498305 17.2620542,8.8999661 C17.2621898,9.03738983 17.2646305,9.17440678 17.1626644,9.29576271 C17.1165627,9.35061017 17.1155458,9.44749153 17.1046305,9.52681356 C17.0817831,9.69244068 17.0957492,9.87 17.0397492,10.0224746 C16.9667322,10.221322 17.0030034,10.4157627 16.9952068,10.6118305 L17.0263254,11.0287797 Z M3.80661695,22.082278 L3.80661695,19.5639729 C3.92268475,19.5314983 6.09326102,19.5189559 6.35265085,19.5487864 C6.38743051,19.6571254 6.39868475,21.8491932 6.36248136,22.0763797 C6.31617627,22.0816 6.26458305,22.0924475 6.21305763,22.0926508 C5.46485424,22.0946169 4.71671864,22.0952949 3.96851525,22.0953627 C3.92078644,22.0953627 3.87305763,22.0878373 3.80661695,22.082278 Z M3.26252203,8.64441356 L3.26252203,6.37797288 C3.28408136,6.37329492 3.30353898,6.36217627 3.31452203,6.36773559 C3.45181017,6.4375661 3.5992,6.41370169 3.7431322,6.41424407 C4.2851661,6.41627797 4.8272678,6.4156 5.3692339,6.41661695 C5.42760678,6.41675254 5.48584407,6.4216339 5.55472542,6.42482034 L5.55472542,8.63932881 C5.42706441,8.68251525 3.43147119,8.68854915 3.26252203,8.64441356 Z M10.7484542,2.22105085 L8.73950508,2.22105085 C8.69740339,2.09142373 8.68486102,0.435423729 8.72106441,0.205322034 C8.83238644,0.169254237 10.4732,0.156169492 10.7490644,0.192440678 C10.7513695,0.86240678 10.7492678,1.53549153 10.7484542,2.22105085 Z M8.29884068,3.47479322 L8.29884068,5.3631322 C8.17612881,5.40021695 6.59660339,5.40997966 6.37870508,5.37479322 L6.37870508,3.47479322 L8.29884068,3.47479322 Z M5.26897627,12.7072136 L3.53711186,12.7072136 C3.49684068,12.5883661 3.4864678,11.121722 3.52321356,10.9301966 C3.64626441,10.898061 5.10538305,10.8925017 5.26802712,10.9235525 C5.30728136,11.066739 5.30965424,12.554739 5.26897627,12.7072136 Z M5.49183051,14.3190373 L5.49183051,15.852461 C5.38220339,15.8929356 4.13054237,15.9046644 3.92335593,15.8690712 C3.88511864,15.7506983 3.87528814,14.5166644 3.91101695,14.3212068 C4.03698305,14.2885288 5.31237288,14.2843254 5.49183051,14.3190373 Z M5.92658305,23.546522 L5.92658305,24.9962847 C5.85987119,25.0010305 5.80231186,25.0084203 5.74475254,25.0086915 C5.44149831,25.0101831 5.13817627,25.0077424 4.83492203,25.0110644 C4.7116,25.0124203 4.58841356,25.0248949 4.46976949,25.0319458 C4.42082034,24.9135051 4.40515932,23.7726237 4.44427797,23.5549966 C4.55783729,23.5179119 5.71526102,23.5091661 5.92658305,23.546522 Z M0.62120678,18.6122712 L0.62120678,17.2069153 C1.09815593,17.2069153 1.56541017,17.2069153 2.03266441,17.2068475 C2.07157966,17.3416949 2.07957966,18.4573559 2.04039322,18.6122712 L0.62120678,18.6122712 Z M6.58518644,13.6483864 L7.88227119,13.6483864 C7.9219322,13.7654712 7.92966102,14.8196407 7.89047458,14.9994373 L6.59149153,14.9994373 C6.57528814,14.5518441 6.58430508,14.1054712 6.58518644,13.6483864 Z M0.0258644068,10.304339 L1.17250847,10.304339 L1.17250847,11.452339 C1.13433898,11.4601356 1.09888136,11.4736271 1.06335593,11.4738305 C0.754677966,11.4753898 0.445932203,11.4760678 0.137254237,11.4736271 C0.0228813559,11.4727458 0.00613559322,11.4608814 0.00450847458,11.3583051 C-0.000711864407,11.0389153 -0.000237288136,10.7193898 0.000305084746,10.3998644 C0.000372881356,10.3692881 0.0162372881,10.3387797 0.0258644068,10.304339 Z M1.61547797,13.3812407 L1.61547797,14.5087661 L0.456494915,14.5087661 C0.450732203,14.4594102 0.442867797,14.422461 0.442664407,14.3853763 C0.441172881,14.0926983 0.440223729,13.7999525 0.441105085,13.5072746 C0.441511864,13.3773085 0.453444068,13.3590034 0.574732203,13.3573763 C0.889037288,13.3531729 1.20347797,13.3552068 1.51785085,13.3568339 C1.54822373,13.3570373 1.57859661,13.3716136 1.61547797,13.3812407 Z M5.49212881,16.8841831 L5.49212881,17.9630305 C5.37063729,18.0113695 4.56467119,18.0162508 4.38867119,17.9697424 L4.38867119,16.8841831 L5.49212881,16.8841831 Z M30.4750169,21.1186915 C29.4173898,21.1186915 28.4681017,20.9560475 27.6275593,20.6305559 C26.786678,20.3051322 26.0748136,19.8271661 25.4919661,19.1966576 C24.9087797,18.5662169 24.4613898,17.7967932 24.1495932,16.8882508 C23.8375254,15.9799119 23.6817966,14.9356407 23.6817966,13.7559797 C23.6817966,12.5763186 23.861322,11.5323864 24.2207797,10.6237763 C24.5798983,9.71550508 25.0715593,8.94581017 25.6953559,8.31530169 C26.3188814,7.68479322 27.0510847,7.20682712 27.8919661,6.88140339 C28.7325763,6.55597966 29.6341356,6.3932678 30.5970508,6.3932678 C31.1798983,6.3932678 31.7087119,6.43747119 32.1834915,6.52547119 C32.6579322,6.61381017 33.0714237,6.71197966 33.4241695,6.82038644 C33.7765763,6.92906441 34.0680339,7.04411525 34.2987458,7.16614915 C34.5291864,7.28818305 34.6918305,7.37652203 34.7869492,7.43055593 L34.034339,9.52547119 C33.7089153,9.32208136 33.2443051,9.12886102 32.6411186,8.94581017 C32.037661,8.76275932 31.3832881,8.6712339 30.6784068,8.6712339 C30.0682373,8.6712339 29.4988136,8.77645424 28.9699322,8.98648814 C28.4411186,9.19686102 27.9834915,9.51211525 27.5970508,9.93225085 C27.210678,10.3527254 26.9087119,10.8814712 26.6919661,11.5186915 C26.4749492,12.1561831 26.3665424,12.8950983 26.3665424,13.7356407 C26.3665424,14.481539 26.4510847,15.1663525 26.6207797,15.789878 C26.7901356,16.4137424 27.0510847,16.9527254 27.4038305,17.4068271 C27.7562373,17.8612678 28.2037627,18.2136746 28.7462034,18.464522 C29.2883729,18.7155729 29.9392203,18.8407254 30.6987458,18.8407254 C31.6070169,18.8407254 32.3462712,18.7492 32.9156949,18.5662169 C33.4851864,18.3830983 33.925661,18.2102847 34.2377288,18.0475051 L34.9292542,20.1424881 C34.7665424,20.2510983 34.546,20.3595051 34.2682373,20.4678441 C33.9902034,20.576522 33.6612542,20.6814034 33.2817966,20.7830983 C32.9020678,20.8847932 32.4749492,20.9661492 32.0004407,21.0271661 C31.525661,21.0881831 31.0171864,21.1186915 30.4750169,21.1186915 Z M42.8817966,15.4848203 C42.8817966,14.4271254 42.6545424,13.5901085 42.2004407,12.9729559 C41.746,12.3560746 41.1123051,12.0475322 40.2987458,12.0475322 C39.4851864,12.0475322 38.8512203,12.3560746 38.3971186,12.9729559 C37.9426102,13.5901085 37.7156949,14.4271254 37.7156949,15.4848203 C37.7156949,16.5561424 37.9426102,17.4036678 38.3971186,18.0271932 C38.8512203,18.6509898 39.4851864,18.9627864 40.2987458,18.9627864 C41.1123051,18.9627864 41.746,18.6509898 42.2004407,18.0271932 C42.6545424,17.4036678 42.8817966,16.5561424 42.8817966,15.4848203 Z M45.4038305,15.4848203 C45.4038305,16.3257017 45.2817966,17.0916 45.0377288,17.7830576 C44.793661,18.4746508 44.4479661,19.0644814 44.0004407,19.5526169 C43.5529831,20.0407525 43.014,20.4205492 42.3834915,20.6916 C41.7530508,20.9626508 41.058,21.0983797 40.2987458,21.0983797 C39.5392203,21.0983797 38.8476949,20.9626508 38.2241695,20.6916 C37.6003729,20.4205492 37.0648475,20.0407525 36.6174576,19.5526169 C36.1699322,19.0644814 35.8207119,18.4746508 35.5699322,17.7830576 C35.3188814,17.0916 35.1937288,16.3257017 35.1937288,15.4848203 C35.1937288,14.644278 35.3188814,13.8815661 35.5699322,13.1966847 C35.8207119,12.5121424 36.1731186,11.9254983 36.6275593,11.4373627 C37.081661,10.9492271 37.6206441,10.5729559 38.2445763,10.3084814 C38.8680339,10.0441424 39.5528475,9.91193898 40.2987458,9.91193898 C41.0443051,9.91193898 41.7326441,10.0441424 42.3632203,10.3084814 C42.993661,10.5729559 43.5327119,10.9492271 43.9801017,11.4373627 C44.4275593,11.9254983 44.7765085,12.5121424 45.0275593,13.1966847 C45.278339,13.8815661 45.4038305,14.644278 45.4038305,15.4848203 Z M46.9494237,20.8136271 L46.9494237,10.176339 L49.4104407,10.176339 L49.4104407,20.8136271 L46.9494237,20.8136271 Z M49.6748475,7.06447458 C49.6748475,7.52555932 49.5254915,7.89166102 49.2273898,8.16277966 C48.9290169,8.43416949 48.5766102,8.56955932 48.1698305,8.56955932 C47.7492881,8.56955932 47.3898983,8.43416949 47.0917966,8.16277966 C46.7934237,7.89166102 46.6444068,7.52555932 46.6444068,7.06447458 C46.6444068,6.5899661 46.7934237,6.21722034 47.0917966,5.94583051 C47.3898983,5.67471186 47.7492881,5.53905085 48.1698305,5.53905085 C48.5766102,5.53905085 48.9290169,5.67471186 49.2273898,5.94583051 C49.5254915,6.21722034 49.6748475,6.5899661 49.6748475,7.06447458 Z M51.5253966,10.5220949 C51.9999051,10.3867051 52.6167864,10.2576881 53.3763119,10.1356542 C54.1354983,10.0136203 54.9760407,9.95260339 55.898278,9.95260339 C56.7658712,9.95260339 57.4914305,10.0714508 58.0746169,10.3085356 C58.6573966,10.5459593 59.1220746,10.8780271 59.4677695,11.3051458 C59.8135322,11.7322644 60.0576678,12.247722 60.1999729,12.8509085 C60.3424136,13.4543661 60.4136,14.1154508 60.4136,14.8339593 L60.4136,20.8136203 L57.9525831,20.8136203 L57.9525831,15.2204 C57.9525831,14.6509085 57.9150237,14.1662983 57.8406508,13.7661627 C57.7660068,13.3663661 57.6439729,13.0409424 57.4745492,12.7898915 C57.3048542,12.5391119 57.0744814,12.356061 56.7830915,12.240739 C56.4912949,12.1256881 56.1353627,12.0678576 55.7152949,12.0678576 C55.4031593,12.0678576 55.0777356,12.0881966 54.7389559,12.1288746 C54.3998373,12.1695525 54.1491254,12.2035186 53.9864814,12.2305695 L53.9864814,20.8136203 L51.5253966,20.8136203 L51.5253966,10.5220949 Z M62.5896203,10.6644407 C62.9827729,10.5561017 63.4947729,10.4340678 64.1252136,10.298339 C64.755722,10.1630169 65.5724678,10.0949492 66.576061,10.0949492 C67.904739,10.0949492 68.8673831,10.4813898 69.4641966,11.2542712 C69.5318576,11.2002373 69.6641288,11.1087119 69.8608068,10.9796949 C70.0572136,10.8510169 70.3048068,10.7188136 70.6031797,10.5830847 C70.9012814,10.4476949 71.2505695,10.3323729 71.6506373,10.237322 C72.0504339,10.1426102 72.4947729,10.0949492 72.9828407,10.0949492 C73.7827729,10.0949492 74.4300949,10.2138644 74.9252136,10.4508814 C75.420061,10.6883051 75.8029763,11.0203729 76.0743661,11.4474915 C76.3454169,11.8746102 76.5285356,12.3866102 76.6235186,12.9830847 C76.7182305,13.5798983 76.7659593,14.2308136 76.7659593,14.9356271 L76.7659593,20.8135932 L75.4439254,20.8135932 L75.4439254,15.3628136 C75.4439254,14.6712881 75.4133492,14.0712203 75.3523322,13.5627458 C75.2913831,13.0542712 75.1692814,12.6341356 74.9862983,12.3017288 C74.8031797,11.969661 74.5419593,11.7188814 74.2031797,11.5491864 C73.8641288,11.3798305 73.4233153,11.2949492 72.8811458,11.2949492 C72.4743661,11.2949492 72.1048068,11.3325085 71.7726712,11.4068136 C71.4402644,11.4815254 71.1523322,11.5730508 70.9082644,11.6813898 C70.6642644,11.7901356 70.4639932,11.8984746 70.3083322,12.0068136 C70.1522644,12.1154915 70.0403322,12.1969153 69.9726712,12.2508814 C70.0947051,12.6036949 70.1862305,13.0002373 70.2472475,13.4407119 C70.3083322,13.8815254 70.3387729,14.3458644 70.3387729,14.8339322 L70.3387729,20.8135932 L69.016739,20.8135932 L69.016739,15.3628136 C69.016739,14.6712881 68.9862983,14.0712203 68.9252136,13.5627458 C68.8641966,13.0542712 68.7386373,12.6341356 68.5489424,12.3017288 C68.3589085,11.969661 68.0913153,11.7188814 67.7455525,11.5491864 C67.3997898,11.3798305 66.9421627,11.2949492 66.3726712,11.2949492 C65.7351797,11.2949492 65.1961966,11.3289831 64.755722,11.3966441 C64.3149085,11.4646441 64.0336881,11.525661 63.9116542,11.5796949 L63.9116542,20.8135932 L62.5896203,20.8135932 L62.5896203,10.6644407 Z M82.4403254,19.8577017 C82.9555119,19.8577017 83.4064271,19.8408203 83.7928678,19.8068542 C84.1792407,19.7731593 84.5079186,19.7290237 84.7793085,19.6746508 L84.7793085,15.9729559 C84.6299525,15.9052271 84.3928678,15.8340407 84.0674441,15.7593966 C83.7420203,15.6850237 83.2945627,15.6474644 82.7250712,15.6474644 C82.3995797,15.6474644 82.0605288,15.6713288 81.708122,15.7187186 C81.3553763,15.7663797 81.0298847,15.8680746 80.7318508,16.0238034 C80.4334102,16.1798034 80.1893424,16.3933627 79.9996475,16.6644136 C79.8095458,16.9358712 79.7149017,17.2949898 79.7149017,17.7424475 C79.7149017,18.1358712 79.7791051,18.467939 79.9080542,18.7390576 C80.0368,19.0104475 80.2198508,19.2271932 80.4572746,19.3899051 C80.6943593,19.5526169 80.9790373,19.6714644 81.3115119,19.7458373 C81.6435797,19.8204814 82.0198508,19.8577017 82.4403254,19.8577017 Z M82.3182915,10.0542441 C83.0097492,10.0542441 83.596122,10.1528203 84.0775458,10.3492271 C84.5587661,10.5459051 84.9486644,10.8169559 85.2470373,11.1627864 C85.5452068,11.5085492 85.7622237,11.9187864 85.8979525,12.3932271 C86.0333424,12.8680746 86.1013424,13.3831932 86.1013424,13.9390576 L86.1013424,20.5695661 C85.9656136,20.6102441 85.7689356,20.6543797 85.5115119,20.7017695 C85.2537492,20.7494305 84.9553763,20.800278 84.6165966,20.8543119 C84.2775458,20.9083458 83.9012068,20.9524814 83.4877831,20.9864475 C83.0740203,21.0201424 82.6504271,21.0372949 82.2165966,21.0372949 C81.660461,21.0372949 81.1488,20.9763458 80.6810034,20.8543119 C80.213139,20.7322102 79.8063593,20.5390576 79.4606644,20.2745831 C79.1149017,20.0102441 78.8434441,19.6714644 78.6471051,19.2576339 C78.4503593,18.844278 78.3521898,18.339261 78.3521898,17.7424475 C78.3521898,17.1728881 78.4605288,16.6848203 78.6776136,16.2780407 C78.8942915,15.871261 79.1993763,15.5356678 79.5928678,15.271261 C79.9859525,15.0068542 80.4537492,14.8136339 80.9962576,14.6916 C81.5383593,14.5695661 82.1281898,14.5085492 82.7657492,14.5085492 C82.9555119,14.5085492 83.1553763,14.5187186 83.3656814,14.5390576 C83.5757831,14.5593966 83.7791729,14.5867186 83.9758508,14.6204136 C84.1723254,14.6543797 84.3420203,14.6884136 84.4843254,14.7221085 C84.6267661,14.7560746 84.7249356,14.7865831 84.7793085,14.8136339 L84.7793085,14.1627864 C84.7793085,13.7966847 84.7519864,13.4407525 84.6979525,13.0949898 C84.6435797,12.7491593 84.5250712,12.4374305 84.3420203,12.1593966 C84.1589695,11.8816339 83.9012068,11.6579051 83.5690712,11.4882102 C83.2367322,11.3187864 82.7994441,11.2339729 82.2572746,11.2339729 C81.4843254,11.2339729 80.9078508,11.288278 80.528461,11.3966847 C80.1486644,11.5053627 79.8706305,11.5933627 79.6945627,11.6610915 L79.5115119,10.5017695 C79.7418847,10.3933627 80.0978169,10.2916678 80.5793085,10.1966847 C81.0603932,10.1019729 81.6400542,10.0542441 82.3182915,10.0542441 Z M88.4603797,10.6644407 C88.8535322,10.5561017 89.3655322,10.4340678 89.9959729,10.298339 C90.6264814,10.1630169 91.4432271,10.0949492 92.4468203,10.0949492 C93.7754983,10.0949492 94.7381424,10.4813898 95.3349559,11.2542712 C95.4026169,11.2002373 95.5348881,11.1087119 95.7315661,10.9796949 C95.9279729,10.8510169 96.1755661,10.7188136 96.473939,10.5830847 C96.7720407,10.4476949 97.1213288,10.3323729 97.5213966,10.237322 C97.9211932,10.1426102 98.3655322,10.0949492 98.8536,10.0949492 C99.6535322,10.0949492 100.300854,10.2138644 100.795973,10.4508814 C101.29082,10.6883051 101.673736,11.0203729 101.945125,11.4474915 C102.216176,11.8746102 102.399295,12.3866102 102.494278,12.9830847 C102.58899,13.5798983 102.636719,14.2308136 102.636719,14.9356271 L102.636719,20.8135932 L101.314685,20.8135932 L101.314685,15.3628136 C101.314685,14.6712881 101.284108,14.0712203 101.223092,13.5627458 C101.162142,13.0542712 101.040041,12.6341356 100.857058,12.3017288 C100.673939,11.969661 100.412719,11.7188814 100.073939,11.5491864 C99.7348881,11.3798305 99.2940746,11.2949492 98.7519051,11.2949492 C98.3451254,11.2949492 97.9755661,11.3325085 97.6434305,11.4068136 C97.3110237,11.4815254 97.0230915,11.5730508 96.7790237,11.6813898 C96.5350237,11.7901356 96.3347525,11.8984746 96.1790915,12.0068136 C96.0230237,12.1154915 95.9110915,12.1969153 95.8434305,12.2508814 C95.9654644,12.6036949 96.0569898,13.0002373 96.1180068,13.4407119 C96.1790915,13.8815254 96.2095322,14.3458644 96.2095322,14.8339322 L96.2095322,20.8135932 L94.8874983,20.8135932 L94.8874983,15.3628136 C94.8874983,14.6712881 94.8570576,14.0712203 94.7959729,13.5627458 C94.7349559,13.0542712 94.6093966,12.6341356 94.4197017,12.3017288 C94.2296678,11.969661 93.9620746,11.7188814 93.6163119,11.5491864 C93.2705492,11.3798305 92.812922,11.2949492 92.2434305,11.2949492 C91.605939,11.2949492 91.0669559,11.3289831 90.6264814,11.3966441 C90.1856678,11.4646441 89.9044475,11.525661 89.7824136,11.5796949 L89.7824136,20.8135932 L88.4603797,20.8135932 L88.4603797,10.6644407 Z M108.311085,19.8577017 C108.826271,19.8577017 109.277186,19.8408203 109.663627,19.8068542 C110.05,19.7731593 110.378678,19.7290237 110.650068,19.6746508 L110.650068,15.9729559 C110.500712,15.9052271 110.263627,15.8340407 109.938203,15.7593966 C109.61278,15.6850237 109.165322,15.6474644 108.595831,15.6474644 C108.270339,15.6474644 107.931288,15.6713288 107.578881,15.7187186 C107.226136,15.7663797 106.900644,15.8680746 106.60261,16.0238034 C106.304169,16.1798034 106.060102,16.3933627 105.870407,16.6644136 C105.680305,16.9358712 105.585661,17.2949898 105.585661,17.7424475 C105.585661,18.1358712 105.649864,18.467939 105.778814,18.7390576 C105.907559,19.0104475 106.09061,19.2271932 106.328034,19.3899051 C106.565119,19.5526169 106.849797,19.6714644 107.182271,19.7458373 C107.514339,19.8204814 107.89061,19.8577017 108.311085,19.8577017 Z M108.189051,10.0542441 C108.880508,10.0542441 109.466881,10.1528203 109.948305,10.3492271 C110.429525,10.5459051 110.819424,10.8169559 111.117797,11.1627864 C111.415966,11.5085492 111.632983,11.9187864 111.768712,12.3932271 C111.904102,12.8680746 111.972102,13.3831932 111.972102,13.9390576 L111.972102,20.5695661 C111.836373,20.6102441 111.639695,20.6543797 111.382271,20.7017695 C111.124508,20.7494305 110.826136,20.800278 110.487356,20.8543119 C110.148305,20.9083458 109.771966,20.9524814 109.358542,20.9864475 C108.94478,21.0201424 108.521186,21.0372949 108.087356,21.0372949 C107.53122,21.0372949 107.019559,20.9763458 106.551763,20.8543119 C106.083898,20.7322102 105.677119,20.5390576 105.331424,20.2745831 C104.985661,20.0102441 104.714203,19.6714644 104.517864,19.2576339 C104.321119,18.844278 104.222949,18.339261 104.222949,17.7424475 C104.222949,17.1728881 104.331288,16.6848203 104.548373,16.2780407 C104.765051,15.871261 105.070136,15.5356678 105.463627,15.271261 C105.856712,15.0068542 106.324508,14.8136339 106.867017,14.6916 C107.409119,14.5695661 107.998949,14.5085492 108.636508,14.5085492 C108.826271,14.5085492 109.026136,14.5187186 109.236441,14.5390576 C109.446542,14.5593966 109.649932,14.5867186 109.84661,14.6204136 C110.043085,14.6543797 110.21278,14.6884136 110.355085,14.7221085 C110.497525,14.7560746 110.595695,14.7865831 110.650068,14.8136339 L110.650068,14.1627864 C110.650068,13.7966847 110.622746,13.4407525 110.568712,13.0949898 C110.514339,12.7491593 110.395831,12.4374305 110.21278,12.1593966 C110.029729,11.8816339 109.771966,11.6579051 109.439831,11.4882102 C109.107492,11.3187864 108.670203,11.2339729 108.128034,11.2339729 C107.355085,11.2339729 106.77861,11.288278 106.39922,11.3966847 C106.019424,11.5053627 105.74139,11.5933627 105.565322,11.6610915 L105.382271,10.5017695 C105.612644,10.3933627 105.968576,10.2916678 106.450068,10.1966847 C106.931153,10.1019729 107.510814,10.0542441 108.189051,10.0542441 Z"
             id="Combined-Shape"
             fill="#B3B3B2"/>
        </g>
      </g>
    </g>
  </g>
</svg>
