<svg xmlns="http://www.w3.org/2000/svg" width="169" height="34" viewBox="0 0 169 34">
    <g fill="none" fill-rule="evenodd">
        <g fill="#B3B3B2">
            <path d="M43.636 24.616c-3.697 0-6.43-2.896-6.43-6.453 0-3.557 2.733-6.524 6.453-6.524 2.356 0 3.816.872 4.97 2.144l-1.766 1.907c-.872-.918-1.79-1.554-3.227-1.554-2.073 0-3.58 1.79-3.58 3.98 0 2.237 1.53 4.027 3.72 4.027 1.344 0 2.333-.636 3.228-1.554l1.719 1.695c-1.224 1.366-2.661 2.332-5.087 2.332M54.13 24.616h-2.848V11.663h2.849v3.038c.777-1.86 2.214-3.133 4.404-3.038v3.015h-.165c-2.496 0-4.24 1.625-4.24 4.922v5.016zM73.452 11.64l-6.297 16.463h-2.89l1.377-3.483-5.395-12.98h3.038l3.68 9.587L70.5 11.64zM81.859 14.112c-1.931 0-3.627 1.578-3.627 4.004 0 2.426 1.696 4.003 3.627 4.003 1.955 0 3.556-1.53 3.556-4.003 0-2.45-1.625-4.004-3.556-4.004m.659 10.48c-2.048 0-3.344-1.036-4.216-2.19v5.7h-2.85V11.64h2.85v2.331c.919-1.295 2.215-2.33 4.216-2.33 2.944 0 5.794 2.33 5.794 6.476 0 4.145-2.826 6.476-5.794 6.476M94.559 14.348v6.098c0 1.106.562 1.553 1.53 1.553h1.118v2.545h-1.95c-2.073-.006-3.547-.928-3.547-3.65v-6.546h-1.582v-2.447h1.582V8.485h2.849v3.416h2.648v2.447h-2.648zM106.22 14.136c-2.285 0-3.745 1.79-3.745 3.98 0 2.214 1.578 4.027 3.792 4.027 2.307 0 3.768-1.79 3.768-3.98 0-2.214-1.578-4.027-3.815-4.027m0 10.48c-3.792 0-6.595-2.896-6.595-6.453 0-3.58 2.826-6.524 6.642-6.524 3.815 0 6.618 2.897 6.618 6.477 0 3.557-2.827 6.5-6.665 6.5M118.1 22.003v1.436a.16.16 0 0 1-.082.144l-1.243.718a.162.162 0 0 1-.165 0l-1.246-.718a.165.165 0 0 1-.083-.144v-1.436c0-.058.033-.113.083-.144l1.246-.718a.162.162 0 0 1 .165 0l1.243.718a.166.166 0 0 1 .083.144M140.13 14.136c-2.285 0-3.745 1.79-3.745 3.98 0 2.214 1.578 4.027 3.792 4.027 2.307 0 3.767-1.79 3.767-3.98 0-2.214-1.577-4.027-3.814-4.027m0 10.48c-3.792 0-6.595-2.896-6.595-6.453 0-3.58 2.826-6.524 6.642-6.524 3.815 0 6.618 2.897 6.618 6.477 0 3.557-2.827 6.5-6.665 6.5M126.777 24.602c-3.697-.071-6.373-3.02-6.304-6.576.068-3.555 2.856-6.47 6.576-6.398 2.355.045 3.798.944 4.928 2.238l-1.803 1.873c-.853-.935-1.759-1.588-3.196-1.616-2.072-.04-3.614 1.72-3.656 3.91-.043 2.238 1.454 4.057 3.643 4.099 1.343.026 2.344-.591 3.256-1.492l1.687 1.728c-1.25 1.342-2.705 2.28-5.13 2.234M163.733 11.64c2.71 0 4.357 1.718 4.357 4.756v8.22h-2.849v-7.348c0-1.978-.919-3.038-2.52-3.038-1.554 0-2.662 1.083-2.662 3.085v7.301h-2.849v-7.372c0-1.93-.943-3.014-2.52-3.014-1.578 0-2.662 1.178-2.662 3.11v7.276h-2.85V11.64h2.85v2.144c.801-1.107 1.885-2.144 3.792-2.144 1.79 0 3.038.872 3.697 2.19 1.014-1.318 2.332-2.19 4.216-2.19"/>
        </g>
        <g fill="#B3B3B2">
            <path d="M0 9.095v16.19l13.949 8.096 13.946-8.096V9.095L13.949 1 0 9.095zm1.228 15.48V9.808l12.721-7.387 12.722 7.387v14.767L13.949 31.96 1.228 24.575z"/>
            <path d="M19.415 7.99H8.455l-1.27 5.617h13.551zM10.4 21.338v-3.733L7.152 15.53l-3.674 2.746 5.008 8.755h2l2.366-2.214v-1.113z"/>
            <path d="M17.509 14.455H10.41l1.196 3.138-.364 3.517h2.705l2.73-.013-.34-3.504z"/>
            <path d="M20.755 15.505l-3.209 2.1v3.733l-2.453 2.366v1.113l2.365 2.189h1.976l4.983-8.73z"/>
        </g>
    </g>
</svg>
