<svg width="52" height="57" viewBox="0 0 52 57" fill="none" xmlns="http://www.w3.org/2000/svg">
<path d="M48.8492 29.3492C48.7356 29.3492 48.6266 29.413 48.5463 29.5265C48.466 29.6401 48.4209 29.7941 48.4209 29.9547V34.2508C48.4209 34.4114 48.466 34.5654 48.5463 34.6789C48.6266 34.7925 48.7356 34.8563 48.8492 34.8563C48.9627 34.8563 49.0717 34.7925 49.152 34.6789C49.2323 34.5654 49.2774 34.4114 49.2774 34.2508V29.9547C49.2774 29.7941 49.2323 29.6401 49.152 29.5265C49.0717 29.413 48.9627 29.3492 48.8492 29.3492V29.3492Z" fill="white"/>
<path d="M51.5717 41.7761H50.747V19.2004C50.747 19.0398 50.7019 18.8858 50.6216 18.7722C50.5413 18.6587 50.4323 18.5949 50.3187 18.5949H38.6624V16.6055C38.6624 16.4449 38.6173 16.2909 38.537 16.1773C38.4567 16.0638 38.3478 16 38.2342 16H36.7658C36.6522 16 36.5433 16.0638 36.463 16.1773C36.3827 16.2909 36.3376 16.4449 36.3376 16.6055V18.5949H24.6813C24.5677 18.5949 24.4587 18.6587 24.3784 18.7722C24.2981 18.8858 24.253 19.0398 24.253 19.2004V41.7761H23.4283C23.3147 41.7761 23.2058 41.8399 23.1254 41.9534C23.0451 42.067 23 42.221 23 42.3816V45.4954C23 45.656 23.0451 45.81 23.1254 45.9236C23.2058 46.0371 23.3147 46.1009 23.4283 46.1009H33.2543L30.2233 54.6178C30.0848 55.0072 30.0613 55.4584 30.158 55.8723C30.2548 56.2862 30.4639 56.6287 30.7393 56.8246C31.0148 57.0206 31.3339 57.0538 31.6267 56.9169C31.9194 56.7801 32.1617 56.4845 32.3003 56.0951L35.8574 46.1009H39.1426L42.6999 56.0958C42.7686 56.2886 42.8635 56.4603 42.9791 56.6013C43.0947 56.7422 43.2289 56.8495 43.3738 56.9172C43.5188 56.9848 43.6718 57.0114 43.824 56.9955C43.9763 56.9796 44.1248 56.9214 44.2612 56.8243C44.3975 56.7272 44.519 56.5931 44.6187 56.4296C44.7184 56.2661 44.7943 56.0765 44.8421 55.8716C44.89 55.6666 44.9088 55.4503 44.8975 55.2351C44.8863 55.0198 44.8451 54.8098 44.7764 54.6171L41.7457 46.1009H51.5717C51.6853 46.1009 51.7942 46.0371 51.8746 45.9236C51.9549 45.81 52 45.656 52 45.4954V42.3816C52 42.221 51.9549 42.067 51.8746 41.9534C51.7942 41.8399 51.6853 41.7761 51.5717 41.7761V41.7761ZM37.1941 17.211H37.8059V18.5949H37.1941V17.211ZM25.1095 19.8059H49.8905V41.7761H25.1095V19.8059ZM31.5353 55.5505C31.5172 55.6013 31.4923 55.6465 31.4618 55.6836C31.4314 55.7206 31.3961 55.7489 31.3579 55.7667C31.3198 55.7845 31.2795 55.7915 31.2394 55.7873C31.1994 55.7831 31.1603 55.7678 31.1244 55.7422C31.0885 55.7167 31.0566 55.6814 31.0303 55.6383C31.0041 55.5953 30.9841 55.5454 30.9715 55.4915C30.9589 55.4375 30.954 55.3806 30.9569 55.3239C30.9599 55.2673 30.9707 55.212 30.9888 55.1613L34.2131 46.1009H34.8983L31.5353 55.5505ZM44.0117 55.162C44.0352 55.228 44.0463 55.3013 44.0441 55.3751C44.0418 55.4489 44.0262 55.5206 43.9988 55.5834C43.9713 55.6463 43.933 55.6981 43.8873 55.734C43.8417 55.77 43.7903 55.7887 43.7381 55.7886C43.6815 55.7882 43.6261 55.7658 43.5779 55.7239C43.5298 55.682 43.4907 55.6221 43.4649 55.5509L40.1014 46.1009H40.7867L44.0117 55.162ZM51.1435 44.89H23.8565V42.987H51.1435V44.89Z" fill="white"/>
<path fill-rule="evenodd" clip-rule="evenodd" d="M37 20V19.9832H35.6038V20H37ZM32.8113 20V19.9832H31.4151V20H32.8113ZM1.39623 33.5641H24.253V35H0.698113C0.312755 35 0 34.6791 0 34.2821V7.71795C0 7.32164 0.312755 7 0.698113 7H14.9012C14.9892 3.528 16.0168 0 18.6892 0C21.3609 0 22.3885 3.528 22.4765 7H36.3019C36.6879 7 37 7.32164 37 7.71795V16H36.7658C36.6522 16 36.5433 16.0638 36.463 16.1773C36.3827 16.2909 36.3376 16.4449 36.3376 16.6055V16.7828V18.5949H35.6038V8.4359H1.39623V33.5641ZM4.88679 31.4103H24.253V29.9744H5.58491V12.7436H31.4151V18.5949H32.8113V12.0256C32.8113 11.6293 32.4993 11.3077 32.1132 11.3077H4.88679C4.50143 11.3077 4.18868 11.6293 4.18868 12.0256V30.6923C4.18868 31.0893 4.50143 31.4103 4.88679 31.4103ZM21.0788 7C21.0062 4.83323 20.447 1.4359 18.6892 1.4359C16.9306 1.4359 16.3715 4.83323 16.2982 7H21.0788ZM18.7038 4.72626C19.4271 4.72626 20.0128 4.1239 20.0128 3.3801C20.0128 2.63631 19.4271 2.03395 18.7038 2.03395C17.9806 2.03395 17.3949 2.63631 17.3949 3.3801C17.3949 4.1239 17.9806 4.72626 18.7038 4.72626Z" fill="white"/>
<rect x="39" y="24" width="6" height="6" fill="#EC5242"/>
<path d="M38.5 33L41.5311 38.25H35.4689L38.5 33Z" fill="#EC5242"/>
<circle cx="32" cy="30" r="3" fill="white"/>
</svg>
