<svg xmlns="http://www.w3.org/2000/svg" x="0px" y="0px"
width="48" height="48"
viewBox="0 0 172 172"
style=" fill:#000000;"><defs><linearGradient x1="35.80825" y1="35.80825" x2="145.53708" y2="145.53708" gradientUnits="userSpaceOnUse" id="color-1_uLWV5A9vXIPu_gr1"><stop offset="0" stop-color="#0d61a9"></stop><stop offset="1" stop-color="#007ad9"></stop></linearGradient></defs><g fill="none" fill-rule="nonzero" stroke="none" stroke-width="1" stroke-linecap="butt" stroke-linejoin="miter" stroke-miterlimit="10" stroke-dasharray="" stroke-dashoffset="0" font-family="none" font-weight="none" font-size="none" text-anchor="none" style="mix-blend-mode: normal"><path d="M0,172v-172h172v172z" fill="none"></path><g><path d="M86,14.33333c-39.5815,0 -71.66667,32.08517 -71.66667,71.66667c0,39.5815 32.08517,71.66667 71.66667,71.66667c39.5815,0 71.66667,-32.08517 71.66667,-71.66667c0,-39.5815 -32.08517,-71.66667 -71.66667,-71.66667z" fill="none"></path><path d="M95.70008,104.99525h18.54733l2.91325,-18.84117h-21.46058v-10.2985c0,-7.826 2.5585,-14.76692 9.87925,-14.76692h11.76408v-16.44033c-2.06758,-0.2795 -6.43925,-0.88867 -14.69883,-0.88867c-17.25017,0 -27.36233,9.10883 -27.36233,29.8635v12.5345h-17.73392v18.84117h17.73033v51.78633c3.51167,0.52317 7.06992,0.8815 10.72133,0.8815c3.30025,0 6.52167,-0.301 9.70008,-0.731z" fill="#ffffff"></path></g></g></svg>