<svg width="42" height="50" viewBox="0 0 42 50" fill="none" xmlns="http://www.w3.org/2000/svg">
<path d="M37.0589 22.9167H31.043L30.1758 17.0625C29.7928 14.4604 27.1568 12.5 24.0487 12.5H17.9488C14.8409 12.5 12.2047 14.4604 11.8193 17.0625L10.9521 22.9167H4.94121C2.21612 22.9167 0 24.7854 0 27.0834C0 29.3813 2.21612 31.2501 4.94121 31.2501H5.06964L7.41917 49.073C7.48831 49.6022 8.01709 50.0001 8.64709 50.0001H33.3529C33.9829 50.0001 34.5116 49.6021 34.5808 49.073L36.9304 31.25H37.0588C39.7839 31.25 42 29.3812 42 27.0833C42 24.7854 39.7839 22.9167 37.0589 22.9167ZM14.2702 17.3208C14.5024 15.7604 16.0836 14.5833 17.9488 14.5833H24.0487C25.9141 14.5833 27.4952 15.7604 27.7274 17.3208L28.5575 22.9166H13.4401L14.2702 17.3208ZM32.2461 47.9167H9.75399L7.55756 31.25H34.445L32.2461 47.9167Z" fill="white"/>
<path d="M21.0001 10.4167C24.4045 10.4167 27.1765 8.0792 27.1765 5.2084C27.1765 2.3376 24.4045 0 21.0001 0C17.5957 0 14.8237 2.3375 14.8237 5.2083C14.8237 8.0791 17.5957 10.4167 21.0001 10.4167ZM21.0001 2.0833C23.0433 2.0833 24.7059 3.48535 24.7059 5.2083C24.7059 6.93125 23.0433 8.3333 21.0001 8.3333C18.9569 8.3333 17.2942 6.93125 17.2942 5.2083C17.2942 3.48545 18.9569 2.0833 21.0001 2.0833Z" fill="#ec5242"/>
</svg>
